<svg xmlns="http://www.w3.org/2000/svg" width="966" height="420" viewBox="0 0 966 420" role="img" aria-label="Index Scan Throughput">
  <style>
    text { font-family: Inter, Segoe UI, Arial, sans-serif; }
  </style>
  <rect width="100%" height="100%" fill="#ffffff"/>
  <text x="48" y="44" font-size="24" font-weight="800" fill="#111827">Index Scan Throughput</text><text x="48" y="72" font-size="13" fill="#6b7280">Grouped bars show relative throughput for index-only scans at P16; tallest bar per phase is 100%</text>
  <rect x="48" y="101" width="14" height="14" rx="3" fill="#16a34a"/><text x="70" y="113" font-size="13" fill="#111827" text-anchor="start" font-weight="700">ZoneTree</text><rect x="198" y="101" width="14" height="14" rx="3" fill="#7c3aed"/><text x="220" y="113" font-size="13" fill="#111827" text-anchor="start" font-weight="700">RocksDB</text><rect x="348" y="101" width="14" height="14" rx="3" fill="#dc2626"/><text x="370" y="113" font-size="13" fill="#111827" text-anchor="start" font-weight="700">SQLite</text><line x1="48" y1="334" x2="918" y2="334" stroke="#d1d5db" stroke-width="1"/><line x1="48" y1="239" x2="918" y2="239" stroke="#f3f4f6" stroke-width="1"/><text x="918" y="233" font-size="11" fill="#9ca3af" text-anchor="end" font-weight="400">50%</text><text x="918" y="138" font-size="11" fill="#9ca3af" text-anchor="end" font-weight="400">100%</text><rect x="89" y="259.99" width="18" height="74.01" rx="4" fill="#16a34a"/><text x="98" y="252.99" font-size="10" fill="#374151" text-anchor="middle" font-weight="700">39%</text><rect x="114" y="144" width="18" height="190" rx="4" fill="#7c3aed"/><text x="123" y="137" font-size="10" fill="#374151" text-anchor="middle" font-weight="700">100%</text><rect x="139" y="330.08" width="18" height="3.92" rx="4" fill="#dc2626"/><text x="148" y="323.08" font-size="10" fill="#374151" text-anchor="middle" font-weight="700">2%</text><text x="123" y="368" font-size="13" fill="#374151" text-anchor="middle" font-weight="700">country/status</text><rect x="269" y="281.55" width="18" height="52.45" rx="4" fill="#16a34a"/><text x="278" y="274.55" font-size="10" fill="#374151" text-anchor="middle" font-weight="700">28%</text><rect x="294" y="144" width="18" height="190" rx="4" fill="#7c3aed"/><text x="303" y="137" font-size="10" fill="#374151" text-anchor="middle" font-weight="700">100%</text><rect x="319" y="330.49" width="18" height="3.51" rx="4" fill="#dc2626"/><text x="328" y="323.49" font-size="10" fill="#374151" text-anchor="middle" font-weight="700">2%</text><text x="303" y="368" font-size="13" fill="#374151" text-anchor="middle" font-weight="700">created-at range</text><rect x="449" y="270.94" width="18" height="63.06" rx="4" fill="#16a34a"/><text x="458" y="263.94" font-size="10" fill="#374151" text-anchor="middle" font-weight="700">33%</text><rect x="474" y="144" width="18" height="190" rx="4" fill="#7c3aed"/><text x="483" y="137" font-size="10" fill="#374151" text-anchor="middle" font-weight="700">100%</text><rect x="499" y="329.74" width="18" height="4.26" rx="4" fill="#dc2626"/><text x="508" y="322.74" font-size="10" fill="#374151" text-anchor="middle" font-weight="700">2%</text><text x="483" y="368" font-size="13" fill="#374151" text-anchor="middle" font-weight="700">top reputation</text><rect x="629" y="245.07" width="18" height="88.93" rx="4" fill="#16a34a"/><text x="638" y="238.07" font-size="10" fill="#374151" text-anchor="middle" font-weight="700">47%</text><rect x="654" y="144" width="18" height="190" rx="4" fill="#7c3aed"/><text x="663" y="137" font-size="10" fill="#374151" text-anchor="middle" font-weight="700">100%</text><rect x="679" y="330.27" width="18" height="3.73" rx="4" fill="#dc2626"/><text x="688" y="323.27" font-size="10" fill="#374151" text-anchor="middle" font-weight="700">2%</text><text x="663" y="368" font-size="13" fill="#374151" text-anchor="middle" font-weight="700">post country/status</text><rect x="809" y="267.84" width="18" height="66.16" rx="4" fill="#16a34a"/><text x="818" y="260.84" font-size="10" fill="#374151" text-anchor="middle" font-weight="700">35%</text><rect x="834" y="144" width="18" height="190" rx="4" fill="#7c3aed"/><text x="843" y="137" font-size="10" fill="#374151" text-anchor="middle" font-weight="700">100%</text><rect x="859" y="330.16" width="18" height="3.84" rx="4" fill="#dc2626"/><text x="868" y="323.16" font-size="10" fill="#374151" text-anchor="middle" font-weight="700">2%</text><text x="843" y="368" font-size="13" fill="#374151" text-anchor="middle" font-weight="700">post reputation</text>
</svg>