<svg xmlns="http://www.w3.org/2000/svg" width="786" height="420" viewBox="0 0 786 420" role="img" aria-label="Write Throughput">
  <style>
    text { font-family: Inter, Segoe UI, Arial, sans-serif; }
  </style>
  <rect width="100%" height="100%" fill="#ffffff"/>
  <text x="48" y="44" font-size="24" font-weight="800" fill="#111827">Write Throughput</text><text x="48" y="72" font-size="13" fill="#6b7280">Raw write throughput and throughput after the following stabilization phase; tallest bar per group is 100%</text>
  <rect x="48" y="101" width="14" height="14" rx="3" fill="#16a34a"/><text x="70" y="113" font-size="13" fill="#111827" text-anchor="start" font-weight="700">ZoneTree</text><rect x="198" y="101" width="14" height="14" rx="3" fill="#7c3aed"/><text x="220" y="113" font-size="13" fill="#111827" text-anchor="start" font-weight="700">RocksDB</text><rect x="348" y="101" width="14" height="14" rx="3" fill="#dc2626"/><text x="370" y="113" font-size="13" fill="#111827" text-anchor="start" font-weight="700">SQLite</text><line x1="48" y1="334" x2="738" y2="334" stroke="#d1d5db" stroke-width="1"/><line x1="48" y1="239" x2="738" y2="239" stroke="#f3f4f6" stroke-width="1"/><text x="738" y="233" font-size="11" fill="#9ca3af" text-anchor="end" font-weight="400">50%</text><text x="738" y="138" font-size="11" fill="#9ca3af" text-anchor="end" font-weight="400">100%</text><rect x="89" y="144" width="18" height="190" rx="4" fill="#16a34a"/><text x="98" y="137" font-size="10" fill="#374151" text-anchor="middle" font-weight="700">100%</text><rect x="114" y="273.34" width="18" height="60.66" rx="4" fill="#7c3aed"/><text x="123" y="266.34" font-size="10" fill="#374151" text-anchor="middle" font-weight="700">32%</text><rect x="139" y="328.91" width="18" height="5.09" rx="4" fill="#dc2626"/><text x="148" y="321.91" font-size="10" fill="#374151" text-anchor="middle" font-weight="700">3%</text><text x="123" y="368" font-size="13" fill="#374151" text-anchor="middle" font-weight="700">insert</text><rect x="269" y="144" width="18" height="190" rx="4" fill="#16a34a"/><text x="278" y="137" font-size="10" fill="#374151" text-anchor="middle" font-weight="700">100%</text><rect x="294" y="246.32" width="18" height="87.68" rx="4" fill="#7c3aed"/><text x="303" y="239.32" font-size="10" fill="#374151" text-anchor="middle" font-weight="700">46%</text><rect x="319" y="325.07" width="18" height="8.93" rx="4" fill="#dc2626"/><text x="328" y="318.07" font-size="10" fill="#374151" text-anchor="middle" font-weight="700">5%</text><text x="303" y="368" font-size="13" fill="#374151" text-anchor="middle" font-weight="700">insert + stabilize</text><rect x="449" y="144" width="18" height="190" rx="4" fill="#16a34a"/><text x="458" y="137" font-size="10" fill="#374151" text-anchor="middle" font-weight="700">100%</text><rect x="474" y="284.59" width="18" height="49.41" rx="4" fill="#7c3aed"/><text x="483" y="277.59" font-size="10" fill="#374151" text-anchor="middle" font-weight="700">26%</text><rect x="499" y="327.25" width="18" height="6.75" rx="4" fill="#dc2626"/><text x="508" y="320.25" font-size="10" fill="#374151" text-anchor="middle" font-weight="700">4%</text><text x="483" y="368" font-size="13" fill="#374151" text-anchor="middle" font-weight="700">update</text><rect x="629" y="144" width="18" height="190" rx="4" fill="#16a34a"/><text x="638" y="137" font-size="10" fill="#374151" text-anchor="middle" font-weight="700">100%</text><rect x="654" y="269.51" width="18" height="64.49" rx="4" fill="#7c3aed"/><text x="663" y="262.51" font-size="10" fill="#374151" text-anchor="middle" font-weight="700">34%</text><rect x="679" y="323.73" width="18" height="10.27" rx="4" fill="#dc2626"/><text x="688" y="316.73" font-size="10" fill="#374151" text-anchor="middle" font-weight="700">5%</text><text x="663" y="368" font-size="13" fill="#374151" text-anchor="middle" font-weight="700">update + stabilize</text>
</svg>