<svg xmlns="http://www.w3.org/2000/svg" width="786" height="420" viewBox="0 0 786 420" role="img" aria-label="Lookup Throughput">
  <style>
    text { font-family: Inter, Segoe UI, Arial, sans-serif; }
  </style>
  <rect width="100%" height="100%" fill="#ffffff"/>
  <text x="48" y="44" font-size="24" font-weight="800" fill="#111827">Lookup Throughput</text><text x="48" y="72" font-size="13" fill="#6b7280">Grouped bars show relative throughput for point and email lookups; tallest bar per phase is 100%</text>
  <rect x="48" y="101" width="14" height="14" rx="3" fill="#16a34a"/><text x="70" y="113" font-size="13" fill="#111827" text-anchor="start" font-weight="700">ZoneTree</text><rect x="198" y="101" width="14" height="14" rx="3" fill="#7c3aed"/><text x="220" y="113" font-size="13" fill="#111827" text-anchor="start" font-weight="700">RocksDB</text><rect x="348" y="101" width="14" height="14" rx="3" fill="#dc2626"/><text x="370" y="113" font-size="13" fill="#111827" text-anchor="start" font-weight="700">SQLite</text><rect x="498" y="101" width="14" height="14" rx="3" fill="#2563eb"/><text x="520" y="113" font-size="13" fill="#111827" text-anchor="start" font-weight="700">MySQL</text><line x1="48" y1="334" x2="738" y2="334" stroke="#d1d5db" stroke-width="1"/><line x1="48" y1="239" x2="738" y2="239" stroke="#f3f4f6" stroke-width="1"/><text x="738" y="233" font-size="11" fill="#9ca3af" text-anchor="end" font-weight="400">50%</text><text x="738" y="138" font-size="11" fill="#9ca3af" text-anchor="end" font-weight="400">100%</text><rect x="76.5" y="144" width="18" height="190" rx="4" fill="#16a34a"/><text x="85.5" y="137" font-size="10" fill="#374151" text-anchor="middle" font-weight="700">100%</text><rect x="101.5" y="199.51" width="18" height="134.49" rx="4" fill="#7c3aed"/><text x="110.5" y="192.51" font-size="10" fill="#374151" text-anchor="middle" font-weight="700">71%</text><rect x="126.5" y="194.29" width="18" height="139.71" rx="4" fill="#dc2626"/><text x="135.5" y="187.29" font-size="10" fill="#374151" text-anchor="middle" font-weight="700">74%</text><rect x="151.5" y="315.3" width="18" height="18.7" rx="4" fill="#2563eb"/><text x="160.5" y="308.3" font-size="10" fill="#374151" text-anchor="middle" font-weight="700">10%</text><text x="123" y="368" font-size="13" fill="#374151" text-anchor="middle" font-weight="700">read user id</text><rect x="256.5" y="181.51" width="18" height="152.49" rx="4" fill="#16a34a"/><text x="265.5" y="174.51" font-size="10" fill="#374151" text-anchor="middle" font-weight="700">80%</text><rect x="281.5" y="191.68" width="18" height="142.32" rx="4" fill="#7c3aed"/><text x="290.5" y="184.68" font-size="10" fill="#374151" text-anchor="middle" font-weight="700">75%</text><rect x="306.5" y="144" width="18" height="190" rx="4" fill="#dc2626"/><text x="315.5" y="137" font-size="10" fill="#374151" text-anchor="middle" font-weight="700">100%</text><rect x="331.5" y="307.7" width="18" height="26.3" rx="4" fill="#2563eb"/><text x="340.5" y="300.7" font-size="10" fill="#374151" text-anchor="middle" font-weight="700">14%</text><text x="303" y="368" font-size="13" fill="#374151" text-anchor="middle" font-weight="700">email lookup</text><rect x="436.5" y="144" width="18" height="190" rx="4" fill="#16a34a"/><text x="445.5" y="137" font-size="10" fill="#374151" text-anchor="middle" font-weight="700">100%</text><rect x="461.5" y="279.28" width="18" height="54.72" rx="4" fill="#7c3aed"/><text x="470.5" y="272.28" font-size="10" fill="#374151" text-anchor="middle" font-weight="700">29%</text><rect x="486.5" y="271.89" width="18" height="62.11" rx="4" fill="#dc2626"/><text x="495.5" y="264.89" font-size="10" fill="#374151" text-anchor="middle" font-weight="700">33%</text><rect x="511.5" y="326.77" width="18" height="7.23" rx="4" fill="#2563eb"/><text x="520.5" y="319.77" font-size="10" fill="#374151" text-anchor="middle" font-weight="700">4%</text><text x="483" y="368" font-size="13" fill="#374151" text-anchor="middle" font-weight="700">post read id</text><rect x="616.5" y="144" width="18" height="190" rx="4" fill="#16a34a"/><text x="625.5" y="137" font-size="10" fill="#374151" text-anchor="middle" font-weight="700">100%</text><rect x="641.5" y="216.32" width="18" height="117.68" rx="4" fill="#7c3aed"/><text x="650.5" y="209.32" font-size="10" fill="#374151" text-anchor="middle" font-weight="700">62%</text><rect x="666.5" y="187.69" width="18" height="146.31" rx="4" fill="#dc2626"/><text x="675.5" y="180.69" font-size="10" fill="#374151" text-anchor="middle" font-weight="700">77%</text><rect x="691.5" y="313.91" width="18" height="20.09" rx="4" fill="#2563eb"/><text x="700.5" y="306.91" font-size="10" fill="#374151" text-anchor="middle" font-weight="700">11%</text><text x="663" y="368" font-size="13" fill="#374151" text-anchor="middle" font-weight="700">post email</text>
</svg>