<svg xmlns="http://www.w3.org/2000/svg" width="966" height="420" viewBox="0 0 966 420" role="img" aria-label="Query Throughput">
  <style>
    text { font-family: Inter, Segoe UI, Arial, sans-serif; }
  </style>
  <rect width="100%" height="100%" fill="#ffffff"/>
  <text x="48" y="44" font-size="24" font-weight="800" fill="#111827">Query Throughput</text><text x="48" y="72" font-size="13" fill="#6b7280">Grouped bars show relative throughput for indexed queries that fetch profiles; tallest bar per phase is 100%</text>
  <rect x="48" y="101" width="14" height="14" rx="3" fill="#16a34a"/><text x="70" y="113" font-size="13" fill="#111827" text-anchor="start" font-weight="700">ZoneTree</text><rect x="198" y="101" width="14" height="14" rx="3" fill="#7c3aed"/><text x="220" y="113" font-size="13" fill="#111827" text-anchor="start" font-weight="700">RocksDB</text><rect x="348" y="101" width="14" height="14" rx="3" fill="#dc2626"/><text x="370" y="113" font-size="13" fill="#111827" text-anchor="start" font-weight="700">SQLite</text><rect x="498" y="101" width="14" height="14" rx="3" fill="#2563eb"/><text x="520" y="113" font-size="13" fill="#111827" text-anchor="start" font-weight="700">MySQL</text><line x1="48" y1="334" x2="918" y2="334" stroke="#d1d5db" stroke-width="1"/><line x1="48" y1="239" x2="918" y2="239" stroke="#f3f4f6" stroke-width="1"/><text x="918" y="233" font-size="11" fill="#9ca3af" text-anchor="end" font-weight="400">50%</text><text x="918" y="138" font-size="11" fill="#9ca3af" text-anchor="end" font-weight="400">100%</text><rect x="76.5" y="144" width="18" height="190" rx="4" fill="#16a34a"/><text x="85.5" y="137" font-size="10" fill="#374151" text-anchor="middle" font-weight="700">100%</text><rect x="101.5" y="244.12" width="18" height="89.88" rx="4" fill="#7c3aed"/><text x="110.5" y="237.12" font-size="10" fill="#374151" text-anchor="middle" font-weight="700">47%</text><rect x="126.5" y="242.61" width="18" height="91.39" rx="4" fill="#dc2626"/><text x="135.5" y="235.61" font-size="10" fill="#374151" text-anchor="middle" font-weight="700">48%</text><rect x="151.5" y="261.47" width="18" height="72.53" rx="4" fill="#2563eb"/><text x="160.5" y="254.47" font-size="10" fill="#374151" text-anchor="middle" font-weight="700">38%</text><text x="123" y="368" font-size="13" fill="#374151" text-anchor="middle" font-weight="700">country/status</text><rect x="256.5" y="144" width="18" height="190" rx="4" fill="#16a34a"/><text x="265.5" y="137" font-size="10" fill="#374151" text-anchor="middle" font-weight="700">100%</text><rect x="281.5" y="265.47" width="18" height="68.53" rx="4" fill="#7c3aed"/><text x="290.5" y="258.47" font-size="10" fill="#374151" text-anchor="middle" font-weight="700">36%</text><rect x="306.5" y="256.59" width="18" height="77.41" rx="4" fill="#dc2626"/><text x="315.5" y="249.59" font-size="10" fill="#374151" text-anchor="middle" font-weight="700">41%</text><rect x="331.5" y="275.94" width="18" height="58.06" rx="4" fill="#2563eb"/><text x="340.5" y="268.94" font-size="10" fill="#374151" text-anchor="middle" font-weight="700">31%</text><text x="303" y="368" font-size="13" fill="#374151" text-anchor="middle" font-weight="700">created-at range</text><rect x="436.5" y="144" width="18" height="190" rx="4" fill="#16a34a"/><text x="445.5" y="137" font-size="10" fill="#374151" text-anchor="middle" font-weight="700">100%</text><rect x="461.5" y="275.28" width="18" height="58.72" rx="4" fill="#7c3aed"/><text x="470.5" y="268.28" font-size="10" fill="#374151" text-anchor="middle" font-weight="700">31%</text><rect x="486.5" y="274.15" width="18" height="59.85" rx="4" fill="#dc2626"/><text x="495.5" y="267.15" font-size="10" fill="#374151" text-anchor="middle" font-weight="700">31%</text><rect x="511.5" y="284.01" width="18" height="49.99" rx="4" fill="#2563eb"/><text x="520.5" y="277.01" font-size="10" fill="#374151" text-anchor="middle" font-weight="700">26%</text><text x="483" y="368" font-size="13" fill="#374151" text-anchor="middle" font-weight="700">top reputation</text><rect x="616.5" y="144" width="18" height="190" rx="4" fill="#16a34a"/><text x="625.5" y="137" font-size="10" fill="#374151" text-anchor="middle" font-weight="700">100%</text><rect x="641.5" y="254.53" width="18" height="79.47" rx="4" fill="#7c3aed"/><text x="650.5" y="247.53" font-size="10" fill="#374151" text-anchor="middle" font-weight="700">42%</text><rect x="666.5" y="252.87" width="18" height="81.13" rx="4" fill="#dc2626"/><text x="675.5" y="245.87" font-size="10" fill="#374151" text-anchor="middle" font-weight="700">43%</text><rect x="691.5" y="268.32" width="18" height="65.68" rx="4" fill="#2563eb"/><text x="700.5" y="261.32" font-size="10" fill="#374151" text-anchor="middle" font-weight="700">35%</text><text x="663" y="368" font-size="13" fill="#374151" text-anchor="middle" font-weight="700">post country/status</text><rect x="796.5" y="144" width="18" height="190" rx="4" fill="#16a34a"/><text x="805.5" y="137" font-size="10" fill="#374151" text-anchor="middle" font-weight="700">100%</text><rect x="821.5" y="276.65" width="18" height="57.35" rx="4" fill="#7c3aed"/><text x="830.5" y="269.65" font-size="10" fill="#374151" text-anchor="middle" font-weight="700">30%</text><rect x="846.5" y="274.59" width="18" height="59.41" rx="4" fill="#dc2626"/><text x="855.5" y="267.59" font-size="10" fill="#374151" text-anchor="middle" font-weight="700">31%</text><rect x="871.5" y="283.22" width="18" height="50.78" rx="4" fill="#2563eb"/><text x="880.5" y="276.22" font-size="10" fill="#374151" text-anchor="middle" font-weight="700">27%</text><text x="843" y="368" font-size="13" fill="#374151" text-anchor="middle" font-weight="700">post reputation</text>
</svg>