<svg xmlns="http://www.w3.org/2000/svg" width="966" height="420" viewBox="0 0 966 420" role="img" aria-label="Query Throughput">
  <style>
    text { font-family: Inter, Segoe UI, Arial, sans-serif; }
  </style>
  <rect width="100%" height="100%" fill="#ffffff"/>
  <text x="48" y="44" font-size="24" font-weight="800" fill="#111827">Query Throughput</text><text x="48" y="72" font-size="13" fill="#6b7280">Grouped bars show relative throughput for indexed queries that fetch profiles; tallest bar per phase is 100%</text>
  <rect x="48" y="101" width="14" height="14" rx="3" fill="#16a34a"/><text x="70" y="113" font-size="13" fill="#111827" text-anchor="start" font-weight="700">ZoneTree</text><rect x="198" y="101" width="14" height="14" rx="3" fill="#7c3aed"/><text x="220" y="113" font-size="13" fill="#111827" text-anchor="start" font-weight="700">RocksDB</text><rect x="348" y="101" width="14" height="14" rx="3" fill="#dc2626"/><text x="370" y="113" font-size="13" fill="#111827" text-anchor="start" font-weight="700">SQLite</text><line x1="48" y1="334" x2="918" y2="334" stroke="#d1d5db" stroke-width="1"/><line x1="48" y1="239" x2="918" y2="239" stroke="#f3f4f6" stroke-width="1"/><text x="918" y="233" font-size="11" fill="#9ca3af" text-anchor="end" font-weight="400">50%</text><text x="918" y="138" font-size="11" fill="#9ca3af" text-anchor="end" font-weight="400">100%</text><rect x="89" y="144" width="18" height="190" rx="4" fill="#16a34a"/><text x="98" y="137" font-size="10" fill="#374151" text-anchor="middle" font-weight="700">100%</text><rect x="114" y="240.58" width="18" height="93.42" rx="4" fill="#7c3aed"/><text x="123" y="233.58" font-size="10" fill="#374151" text-anchor="middle" font-weight="700">49%</text><rect x="139" y="249.4" width="18" height="84.6" rx="4" fill="#dc2626"/><text x="148" y="242.4" font-size="10" fill="#374151" text-anchor="middle" font-weight="700">45%</text><text x="123" y="368" font-size="13" fill="#374151" text-anchor="middle" font-weight="700">country/status</text><rect x="269" y="144" width="18" height="190" rx="4" fill="#16a34a"/><text x="278" y="137" font-size="10" fill="#374151" text-anchor="middle" font-weight="700">100%</text><rect x="294" y="270.19" width="18" height="63.81" rx="4" fill="#7c3aed"/><text x="303" y="263.19" font-size="10" fill="#374151" text-anchor="middle" font-weight="700">34%</text><rect x="319" y="261.81" width="18" height="72.19" rx="4" fill="#dc2626"/><text x="328" y="254.81" font-size="10" fill="#374151" text-anchor="middle" font-weight="700">38%</text><text x="303" y="368" font-size="13" fill="#374151" text-anchor="middle" font-weight="700">created-at range</text><rect x="449" y="144" width="18" height="190" rx="4" fill="#16a34a"/><text x="458" y="137" font-size="10" fill="#374151" text-anchor="middle" font-weight="700">100%</text><rect x="474" y="266.45" width="18" height="67.55" rx="4" fill="#7c3aed"/><text x="483" y="259.45" font-size="10" fill="#374151" text-anchor="middle" font-weight="700">36%</text><rect x="499" y="274.62" width="18" height="59.38" rx="4" fill="#dc2626"/><text x="508" y="267.62" font-size="10" fill="#374151" text-anchor="middle" font-weight="700">31%</text><text x="483" y="368" font-size="13" fill="#374151" text-anchor="middle" font-weight="700">top reputation</text><rect x="629" y="144" width="18" height="190" rx="4" fill="#16a34a"/><text x="638" y="137" font-size="10" fill="#374151" text-anchor="middle" font-weight="700">100%</text><rect x="654" y="236.68" width="18" height="97.32" rx="4" fill="#7c3aed"/><text x="663" y="229.68" font-size="10" fill="#374151" text-anchor="middle" font-weight="700">51%</text><rect x="679" y="246.89" width="18" height="87.11" rx="4" fill="#dc2626"/><text x="688" y="239.89" font-size="10" fill="#374151" text-anchor="middle" font-weight="700">46%</text><text x="663" y="368" font-size="13" fill="#374151" text-anchor="middle" font-weight="700">post country/status</text><rect x="809" y="144" width="18" height="190" rx="4" fill="#16a34a"/><text x="818" y="137" font-size="10" fill="#374151" text-anchor="middle" font-weight="700">100%</text><rect x="834" y="264.68" width="18" height="69.32" rx="4" fill="#7c3aed"/><text x="843" y="257.68" font-size="10" fill="#374151" text-anchor="middle" font-weight="700">36%</text><rect x="859" y="270.15" width="18" height="63.85" rx="4" fill="#dc2626"/><text x="868" y="263.15" font-size="10" fill="#374151" text-anchor="middle" font-weight="700">34%</text><text x="843" y="368" font-size="13" fill="#374151" text-anchor="middle" font-weight="700">post reputation</text>
</svg>