<svg xmlns="http://www.w3.org/2000/svg" width="966" height="420" viewBox="0 0 966 420" role="img" aria-label="Query Throughput">
  <style>
    text { font-family: Inter, Segoe UI, Arial, sans-serif; }
  </style>
  <rect width="100%" height="100%" fill="#ffffff"/>
  <text x="48" y="44" font-size="24" font-weight="800" fill="#111827">Query Throughput</text><text x="48" y="72" font-size="13" fill="#6b7280">Grouped bars show relative throughput for indexed queries that fetch profiles at P16; tallest bar per phase is 100%</text>
  <rect x="48" y="101" width="14" height="14" rx="3" fill="#16a34a"/><text x="70" y="113" font-size="13" fill="#111827" text-anchor="start" font-weight="700">ZoneTree</text><rect x="198" y="101" width="14" height="14" rx="3" fill="#7c3aed"/><text x="220" y="113" font-size="13" fill="#111827" text-anchor="start" font-weight="700">RocksDB</text><rect x="348" y="101" width="14" height="14" rx="3" fill="#dc2626"/><text x="370" y="113" font-size="13" fill="#111827" text-anchor="start" font-weight="700">SQLite</text><line x1="48" y1="334" x2="918" y2="334" stroke="#d1d5db" stroke-width="1"/><line x1="48" y1="239" x2="918" y2="239" stroke="#f3f4f6" stroke-width="1"/><text x="918" y="233" font-size="11" fill="#9ca3af" text-anchor="end" font-weight="400">50%</text><text x="918" y="138" font-size="11" fill="#9ca3af" text-anchor="end" font-weight="400">100%</text><rect x="89" y="144" width="18" height="190" rx="4" fill="#16a34a"/><text x="98" y="137" font-size="10" fill="#374151" text-anchor="middle" font-weight="700">100%</text><rect x="114" y="146.47" width="18" height="187.53" rx="4" fill="#7c3aed"/><text x="123" y="139.47" font-size="10" fill="#374151" text-anchor="middle" font-weight="700">99%</text><rect x="139" y="321.89" width="18" height="12.11" rx="4" fill="#dc2626"/><text x="148" y="314.89" font-size="10" fill="#374151" text-anchor="middle" font-weight="700">6%</text><text x="123" y="368" font-size="13" fill="#374151" text-anchor="middle" font-weight="700">country/status</text><rect x="269" y="144" width="18" height="190" rx="4" fill="#16a34a"/><text x="278" y="137" font-size="10" fill="#374151" text-anchor="middle" font-weight="700">100%</text><rect x="294" y="276.7" width="18" height="57.3" rx="4" fill="#7c3aed"/><text x="303" y="269.7" font-size="10" fill="#374151" text-anchor="middle" font-weight="700">30%</text><rect x="319" y="328.77" width="18" height="5.23" rx="4" fill="#dc2626"/><text x="328" y="321.77" font-size="10" fill="#374151" text-anchor="middle" font-weight="700">3%</text><text x="303" y="368" font-size="13" fill="#374151" text-anchor="middle" font-weight="700">created-at range</text><rect x="449" y="144" width="18" height="190" rx="4" fill="#16a34a"/><text x="458" y="137" font-size="10" fill="#374151" text-anchor="middle" font-weight="700">100%</text><rect x="474" y="261.62" width="18" height="72.38" rx="4" fill="#7c3aed"/><text x="483" y="254.62" font-size="10" fill="#374151" text-anchor="middle" font-weight="700">38%</text><rect x="499" y="328.71" width="18" height="5.29" rx="4" fill="#dc2626"/><text x="508" y="321.71" font-size="10" fill="#374151" text-anchor="middle" font-weight="700">3%</text><text x="483" y="368" font-size="13" fill="#374151" text-anchor="middle" font-weight="700">top reputation</text><rect x="629" y="150.14" width="18" height="183.86" rx="4" fill="#16a34a"/><text x="638" y="143.14" font-size="10" fill="#374151" text-anchor="middle" font-weight="700">97%</text><rect x="654" y="144" width="18" height="190" rx="4" fill="#7c3aed"/><text x="663" y="137" font-size="10" fill="#374151" text-anchor="middle" font-weight="700">100%</text><rect x="679" y="322.3" width="18" height="11.7" rx="4" fill="#dc2626"/><text x="688" y="315.3" font-size="10" fill="#374151" text-anchor="middle" font-weight="700">6%</text><text x="663" y="368" font-size="13" fill="#374151" text-anchor="middle" font-weight="700">post country/status</text><rect x="809" y="144" width="18" height="190" rx="4" fill="#16a34a"/><text x="818" y="137" font-size="10" fill="#374151" text-anchor="middle" font-weight="700">100%</text><rect x="834" y="251.86" width="18" height="82.14" rx="4" fill="#7c3aed"/><text x="843" y="244.86" font-size="10" fill="#374151" text-anchor="middle" font-weight="700">43%</text><rect x="859" y="328.55" width="18" height="5.45" rx="4" fill="#dc2626"/><text x="868" y="321.55" font-size="10" fill="#374151" text-anchor="middle" font-weight="700">3%</text><text x="843" y="368" font-size="13" fill="#374151" text-anchor="middle" font-weight="700">post reputation</text>
</svg>