<svg xmlns="http://www.w3.org/2000/svg" width="786" height="420" viewBox="0 0 786 420" role="img" aria-label="Write Throughput">
  <style>
    text { font-family: Inter, Segoe UI, Arial, sans-serif; }
  </style>
  <rect width="100%" height="100%" fill="#ffffff"/>
  <text x="48" y="44" font-size="24" font-weight="800" fill="#111827">Write Throughput</text><text x="48" y="72" font-size="13" fill="#6b7280">Raw write throughput and throughput after the following stabilization phase; tallest bar per group is 100%</text>
  <rect x="48" y="101" width="14" height="14" rx="3" fill="#16a34a"/><text x="70" y="113" font-size="13" fill="#111827" text-anchor="start" font-weight="700">ZoneTree</text><rect x="198" y="101" width="14" height="14" rx="3" fill="#7c3aed"/><text x="220" y="113" font-size="13" fill="#111827" text-anchor="start" font-weight="700">RocksDB</text><rect x="348" y="101" width="14" height="14" rx="3" fill="#dc2626"/><text x="370" y="113" font-size="13" fill="#111827" text-anchor="start" font-weight="700">SQLite</text><rect x="498" y="101" width="14" height="14" rx="3" fill="#2563eb"/><text x="520" y="113" font-size="13" fill="#111827" text-anchor="start" font-weight="700">MySQL</text><line x1="48" y1="334" x2="738" y2="334" stroke="#d1d5db" stroke-width="1"/><line x1="48" y1="239" x2="738" y2="239" stroke="#f3f4f6" stroke-width="1"/><text x="738" y="233" font-size="11" fill="#9ca3af" text-anchor="end" font-weight="400">50%</text><text x="738" y="138" font-size="11" fill="#9ca3af" text-anchor="end" font-weight="400">100%</text><rect x="76.5" y="144" width="18" height="190" rx="4" fill="#16a34a"/><text x="85.5" y="137" font-size="10" fill="#374151" text-anchor="middle" font-weight="700">100%</text><rect x="101.5" y="144.43" width="18" height="189.57" rx="4" fill="#7c3aed"/><text x="110.5" y="137.43" font-size="10" fill="#374151" text-anchor="middle" font-weight="700">100%</text><rect x="126.5" y="327.5" width="18" height="6.5" rx="4" fill="#dc2626"/><text x="135.5" y="320.5" font-size="10" fill="#374151" text-anchor="middle" font-weight="700">3%</text><rect x="151.5" y="298.88" width="18" height="35.12" rx="4" fill="#2563eb"/><text x="160.5" y="291.88" font-size="10" fill="#374151" text-anchor="middle" font-weight="700">18%</text><text x="123" y="368" font-size="13" fill="#374151" text-anchor="middle" font-weight="700">insert</text><rect x="256.5" y="160.1" width="18" height="173.9" rx="4" fill="#16a34a"/><text x="265.5" y="153.1" font-size="10" fill="#374151" text-anchor="middle" font-weight="700">92%</text><rect x="281.5" y="144" width="18" height="190" rx="4" fill="#7c3aed"/><text x="290.5" y="137" font-size="10" fill="#374151" text-anchor="middle" font-weight="700">100%</text><rect x="306.5" y="326.33" width="18" height="7.67" rx="4" fill="#dc2626"/><text x="315.5" y="319.33" font-size="10" fill="#374151" text-anchor="middle" font-weight="700">4%</text><rect x="331.5" y="292.57" width="18" height="41.43" rx="4" fill="#2563eb"/><text x="340.5" y="285.57" font-size="10" fill="#374151" text-anchor="middle" font-weight="700">22%</text><text x="303" y="368" font-size="13" fill="#374151" text-anchor="middle" font-weight="700">insert + stabilize</text><rect x="436.5" y="144" width="18" height="190" rx="4" fill="#16a34a"/><text x="445.5" y="137" font-size="10" fill="#374151" text-anchor="middle" font-weight="700">100%</text><rect x="461.5" y="165.56" width="18" height="168.44" rx="4" fill="#7c3aed"/><text x="470.5" y="158.56" font-size="10" fill="#374151" text-anchor="middle" font-weight="700">89%</text><rect x="486.5" y="320.76" width="18" height="13.24" rx="4" fill="#dc2626"/><text x="495.5" y="313.76" font-size="10" fill="#374151" text-anchor="middle" font-weight="700">7%</text><rect x="511.5" y="288.57" width="18" height="45.43" rx="4" fill="#2563eb"/><text x="520.5" y="281.57" font-size="10" fill="#374151" text-anchor="middle" font-weight="700">24%</text><text x="483" y="368" font-size="13" fill="#374151" text-anchor="middle" font-weight="700">update</text><rect x="616.5" y="144" width="18" height="190" rx="4" fill="#16a34a"/><text x="625.5" y="137" font-size="10" fill="#374151" text-anchor="middle" font-weight="700">100%</text><rect x="641.5" y="162.36" width="18" height="171.64" rx="4" fill="#7c3aed"/><text x="650.5" y="155.36" font-size="10" fill="#374151" text-anchor="middle" font-weight="700">90%</text><rect x="666.5" y="318.78" width="18" height="15.22" rx="4" fill="#dc2626"/><text x="675.5" y="311.78" font-size="10" fill="#374151" text-anchor="middle" font-weight="700">8%</text><rect x="691.5" y="281.77" width="18" height="52.23" rx="4" fill="#2563eb"/><text x="700.5" y="274.77" font-size="10" fill="#374151" text-anchor="middle" font-weight="700">27%</text><text x="663" y="368" font-size="13" fill="#374151" text-anchor="middle" font-weight="700">update + stabilize</text>
</svg>