<svg xmlns="http://www.w3.org/2000/svg" width="786" height="420" viewBox="0 0 786 420" role="img" aria-label="Write Throughput">
  <style>
    text { font-family: Inter, Segoe UI, Arial, sans-serif; }
  </style>
  <rect width="100%" height="100%" fill="#ffffff"/>
  <text x="48" y="44" font-size="24" font-weight="800" fill="#111827">Write Throughput</text><text x="48" y="72" font-size="13" fill="#6b7280">Raw write throughput and throughput after the following stabilization phase; tallest bar per group is 100%</text>
  <rect x="48" y="101" width="14" height="14" rx="3" fill="#16a34a"/><text x="70" y="113" font-size="13" fill="#111827" text-anchor="start" font-weight="700">ZoneTree</text><rect x="198" y="101" width="14" height="14" rx="3" fill="#7c3aed"/><text x="220" y="113" font-size="13" fill="#111827" text-anchor="start" font-weight="700">RocksDB</text><line x1="48" y1="334" x2="738" y2="334" stroke="#d1d5db" stroke-width="1"/><line x1="48" y1="239" x2="738" y2="239" stroke="#f3f4f6" stroke-width="1"/><text x="738" y="233" font-size="11" fill="#9ca3af" text-anchor="end" font-weight="400">50%</text><text x="738" y="138" font-size="11" fill="#9ca3af" text-anchor="end" font-weight="400">100%</text><rect x="101.5" y="144" width="18" height="190" rx="4" fill="#16a34a"/><text x="110.5" y="137" font-size="10" fill="#374151" text-anchor="middle" font-weight="700">100%</text><rect x="126.5" y="271.09" width="18" height="62.91" rx="4" fill="#7c3aed"/><text x="135.5" y="264.09" font-size="10" fill="#374151" text-anchor="middle" font-weight="700">33%</text><text x="123" y="368" font-size="13" fill="#374151" text-anchor="middle" font-weight="700">insert</text><rect x="281.5" y="144" width="18" height="190" rx="4" fill="#16a34a"/><text x="290.5" y="137" font-size="10" fill="#374151" text-anchor="middle" font-weight="700">100%</text><rect x="306.5" y="261.28" width="18" height="72.72" rx="4" fill="#7c3aed"/><text x="315.5" y="254.28" font-size="10" fill="#374151" text-anchor="middle" font-weight="700">38%</text><text x="303" y="368" font-size="13" fill="#374151" text-anchor="middle" font-weight="700">insert + stabilize</text><rect x="461.5" y="144" width="18" height="190" rx="4" fill="#16a34a"/><text x="470.5" y="137" font-size="10" fill="#374151" text-anchor="middle" font-weight="700">100%</text><rect x="486.5" y="276.39" width="18" height="57.61" rx="4" fill="#7c3aed"/><text x="495.5" y="269.39" font-size="10" fill="#374151" text-anchor="middle" font-weight="700">30%</text><text x="483" y="368" font-size="13" fill="#374151" text-anchor="middle" font-weight="700">update</text><rect x="641.5" y="144" width="18" height="190" rx="4" fill="#16a34a"/><text x="650.5" y="137" font-size="10" fill="#374151" text-anchor="middle" font-weight="700">100%</text><rect x="666.5" y="266.08" width="18" height="67.92" rx="4" fill="#7c3aed"/><text x="675.5" y="259.08" font-size="10" fill="#374151" text-anchor="middle" font-weight="700">36%</text><text x="663" y="368" font-size="13" fill="#374151" text-anchor="middle" font-weight="700">update + stabilize</text>
</svg>