<svg xmlns="http://www.w3.org/2000/svg" width="786" height="420" viewBox="0 0 786 420" role="img" aria-label="Lookup Throughput">
  <style>
    text { font-family: Inter, Segoe UI, Arial, sans-serif; }
  </style>
  <rect width="100%" height="100%" fill="#ffffff"/>
  <text x="48" y="44" font-size="24" font-weight="800" fill="#111827">Lookup Throughput</text><text x="48" y="72" font-size="13" fill="#6b7280">Grouped bars show relative throughput for point and email lookups; tallest bar per phase is 100%</text>
  <rect x="48" y="101" width="14" height="14" rx="3" fill="#16a34a"/><text x="70" y="113" font-size="13" fill="#111827" text-anchor="start" font-weight="700">ZoneTree</text><rect x="198" y="101" width="14" height="14" rx="3" fill="#7c3aed"/><text x="220" y="113" font-size="13" fill="#111827" text-anchor="start" font-weight="700">RocksDB</text><rect x="348" y="101" width="14" height="14" rx="3" fill="#dc2626"/><text x="370" y="113" font-size="13" fill="#111827" text-anchor="start" font-weight="700">SQLite</text><rect x="498" y="101" width="14" height="14" rx="3" fill="#2563eb"/><text x="520" y="113" font-size="13" fill="#111827" text-anchor="start" font-weight="700">MySQL</text><line x1="48" y1="334" x2="738" y2="334" stroke="#d1d5db" stroke-width="1"/><line x1="48" y1="239" x2="738" y2="239" stroke="#f3f4f6" stroke-width="1"/><text x="738" y="233" font-size="11" fill="#9ca3af" text-anchor="end" font-weight="400">50%</text><text x="738" y="138" font-size="11" fill="#9ca3af" text-anchor="end" font-weight="400">100%</text><rect x="76.5" y="144" width="18" height="190" rx="4" fill="#16a34a"/><text x="85.5" y="137" font-size="10" fill="#374151" text-anchor="middle" font-weight="700">100%</text><rect x="101.5" y="280.7" width="18" height="53.3" rx="4" fill="#7c3aed"/><text x="110.5" y="273.7" font-size="10" fill="#374151" text-anchor="middle" font-weight="700">28%</text><rect x="126.5" y="254.78" width="18" height="79.22" rx="4" fill="#dc2626"/><text x="135.5" y="247.78" font-size="10" fill="#374151" text-anchor="middle" font-weight="700">42%</text><rect x="151.5" y="323.9" width="18" height="10.1" rx="4" fill="#2563eb"/><text x="160.5" y="316.9" font-size="10" fill="#374151" text-anchor="middle" font-weight="700">5%</text><text x="123" y="368" font-size="13" fill="#374151" text-anchor="middle" font-weight="700">read user id</text><rect x="256.5" y="144" width="18" height="190" rx="4" fill="#16a34a"/><text x="265.5" y="137" font-size="10" fill="#374151" text-anchor="middle" font-weight="700">100%</text><rect x="281.5" y="266.34" width="18" height="67.66" rx="4" fill="#7c3aed"/><text x="290.5" y="259.34" font-size="10" fill="#374151" text-anchor="middle" font-weight="700">36%</text><rect x="306.5" y="198.36" width="18" height="135.64" rx="4" fill="#dc2626"/><text x="315.5" y="191.36" font-size="10" fill="#374151" text-anchor="middle" font-weight="700">71%</text><rect x="331.5" y="311.95" width="18" height="22.05" rx="4" fill="#2563eb"/><text x="340.5" y="304.95" font-size="10" fill="#374151" text-anchor="middle" font-weight="700">12%</text><text x="303" y="368" font-size="13" fill="#374151" text-anchor="middle" font-weight="700">email lookup</text><rect x="436.5" y="144" width="18" height="190" rx="4" fill="#16a34a"/><text x="445.5" y="137" font-size="10" fill="#374151" text-anchor="middle" font-weight="700">100%</text><rect x="461.5" y="281.63" width="18" height="52.37" rx="4" fill="#7c3aed"/><text x="470.5" y="274.63" font-size="10" fill="#374151" text-anchor="middle" font-weight="700">28%</text><rect x="486.5" y="254.74" width="18" height="79.26" rx="4" fill="#dc2626"/><text x="495.5" y="247.74" font-size="10" fill="#374151" text-anchor="middle" font-weight="700">42%</text><rect x="511.5" y="323.96" width="18" height="10.04" rx="4" fill="#2563eb"/><text x="520.5" y="316.96" font-size="10" fill="#374151" text-anchor="middle" font-weight="700">5%</text><text x="483" y="368" font-size="13" fill="#374151" text-anchor="middle" font-weight="700">post read id</text><rect x="616.5" y="144" width="18" height="190" rx="4" fill="#16a34a"/><text x="625.5" y="137" font-size="10" fill="#374151" text-anchor="middle" font-weight="700">100%</text><rect x="641.5" y="269.64" width="18" height="64.36" rx="4" fill="#7c3aed"/><text x="650.5" y="262.64" font-size="10" fill="#374151" text-anchor="middle" font-weight="700">34%</text><rect x="666.5" y="203.36" width="18" height="130.64" rx="4" fill="#dc2626"/><text x="675.5" y="196.36" font-size="10" fill="#374151" text-anchor="middle" font-weight="700">69%</text><rect x="691.5" y="312.73" width="18" height="21.27" rx="4" fill="#2563eb"/><text x="700.5" y="305.73" font-size="10" fill="#374151" text-anchor="middle" font-weight="700">11%</text><text x="663" y="368" font-size="13" fill="#374151" text-anchor="middle" font-weight="700">post email</text>
</svg>