<svg xmlns="http://www.w3.org/2000/svg" width="1360" height="422" viewBox="0 0 1360 422" role="img" aria-label="Profile Store Execution Time">
  <style>
    text { font-family: Inter, Segoe UI, Arial, sans-serif; }
  </style>
  <rect width="100%" height="100%" fill="#ffffff"/>
  <text x="48" y="44" font-size="24" font-weight="800" fill="#111827">Profile Store Execution Time</text><text x="48" y="72" font-size="13" fill="#6b7280">500_000 live profiles; completed phase time normalized to the fastest engine</text>
  <text x="48" y="112" font-size="12" fill="#6b7280" text-anchor="start" font-weight="700">Engine</text><text x="338" y="112" font-size="12" fill="#6b7280" text-anchor="start" font-weight="700">Relative throughput</text><text x="930" y="112" font-size="12" fill="#6b7280" text-anchor="start" font-weight="700">Delta</text><text x="1060" y="112" font-size="12" fill="#6b7280" text-anchor="start" font-weight="700">Phase time</text><text x="1210" y="112" font-size="12" fill="#6b7280" text-anchor="start" font-weight="700">Run time</text><line x1="48" y1="170" x2="1300" y2="170" stroke="#f3f4f6" stroke-width="1"/><text x="48" y="146" font-size="17" fill="#111827" text-anchor="start" font-weight="800">ZoneTree</text><rect x="338" y="131" width="540" height="22" rx="11" fill="#eef2f7"/><rect x="338" y="131" width="540" height="22" rx="11" fill="#16a34a"/><text x="930" y="147" font-size="13" fill="#374151" text-anchor="start" font-weight="800">1.00x</text><text x="1060" y="147" font-size="14" fill="#111827" text-anchor="start" font-weight="700">39_566 ms</text><text x="1210" y="147" font-size="14" fill="#4b5563" text-anchor="start" font-weight="400">41_627 ms</text><line x1="48" y1="232" x2="1300" y2="232" stroke="#f3f4f6" stroke-width="1"/><text x="48" y="208" font-size="17" fill="#111827" text-anchor="start" font-weight="800">RocksDB</text><rect x="338" y="193" width="540" height="22" rx="11" fill="#eef2f7"/><rect x="338" y="193" width="213.7" height="22" rx="11" fill="#7c3aed"/><text x="930" y="209" font-size="13" fill="#374151" text-anchor="start" font-weight="800">2.5x</text><text x="1060" y="209" font-size="14" fill="#111827" text-anchor="start" font-weight="700">99_982 ms</text><text x="1210" y="209" font-size="14" fill="#4b5563" text-anchor="start" font-weight="400">102_055 ms</text><line x1="48" y1="294" x2="1300" y2="294" stroke="#f3f4f6" stroke-width="1"/><text x="48" y="270" font-size="17" fill="#111827" text-anchor="start" font-weight="800">SQLite</text><rect x="338" y="255" width="540" height="22" rx="11" fill="#eef2f7"/><rect x="338" y="255" width="110.6" height="22" rx="11" fill="#dc2626"/><text x="930" y="271" font-size="13" fill="#374151" text-anchor="start" font-weight="800">4.9x</text><text x="1060" y="271" font-size="14" fill="#111827" text-anchor="start" font-weight="700">193_180 ms</text><text x="1210" y="271" font-size="14" fill="#4b5563" text-anchor="start" font-weight="400">193_236 ms</text><line x1="48" y1="356" x2="1300" y2="356" stroke="#f3f4f6" stroke-width="1"/><text x="48" y="332" font-size="17" fill="#111827" text-anchor="start" font-weight="800">MySQL</text><rect x="338" y="317" width="540" height="22" rx="11" fill="#eef2f7"/><rect x="338" y="317" width="106.12" height="22" rx="11" fill="#2563eb"/><text x="930" y="333" font-size="13" fill="#374151" text-anchor="start" font-weight="800">5.1x</text><text x="1060" y="333" font-size="14" fill="#111827" text-anchor="start" font-weight="700">201_327 ms</text><text x="1210" y="333" font-size="14" fill="#4b5563" text-anchor="start" font-weight="400">201_496 ms</text><text x="338" y="418" font-size="12" fill="#6b7280" text-anchor="start" font-weight="400">Relative throughput is normalized to the fastest completed engine. Time columns remain absolute.</text>
</svg>