<svg xmlns="http://www.w3.org/2000/svg" width="966" height="420" viewBox="0 0 966 420" role="img" aria-label="Index Scan Throughput">
  <style>
    text { font-family: Inter, Segoe UI, Arial, sans-serif; }
  </style>
  <rect width="100%" height="100%" fill="#ffffff"/>
  <text x="48" y="44" font-size="24" font-weight="800" fill="#111827">Index Scan Throughput</text><text x="48" y="72" font-size="13" fill="#6b7280">Grouped bars show relative throughput for index-only scans; tallest bar per phase is 100%</text>
  <rect x="48" y="101" width="14" height="14" rx="3" fill="#16a34a"/><text x="70" y="113" font-size="13" fill="#111827" text-anchor="start" font-weight="700">ZoneTree</text><rect x="198" y="101" width="14" height="14" rx="3" fill="#7c3aed"/><text x="220" y="113" font-size="13" fill="#111827" text-anchor="start" font-weight="700">RocksDB</text><rect x="348" y="101" width="14" height="14" rx="3" fill="#dc2626"/><text x="370" y="113" font-size="13" fill="#111827" text-anchor="start" font-weight="700">SQLite</text><line x1="48" y1="334" x2="918" y2="334" stroke="#d1d5db" stroke-width="1"/><line x1="48" y1="239" x2="918" y2="239" stroke="#f3f4f6" stroke-width="1"/><text x="918" y="233" font-size="11" fill="#9ca3af" text-anchor="end" font-weight="400">50%</text><text x="918" y="138" font-size="11" fill="#9ca3af" text-anchor="end" font-weight="400">100%</text><rect x="89" y="144" width="18" height="190" rx="4" fill="#16a34a"/><text x="98" y="137" font-size="10" fill="#374151" text-anchor="middle" font-weight="700">100%</text><rect x="114" y="211.8" width="18" height="122.2" rx="4" fill="#7c3aed"/><text x="123" y="204.8" font-size="10" fill="#374151" text-anchor="middle" font-weight="700">64%</text><rect x="139" y="271.66" width="18" height="62.34" rx="4" fill="#dc2626"/><text x="148" y="264.66" font-size="10" fill="#374151" text-anchor="middle" font-weight="700">33%</text><text x="123" y="368" font-size="13" fill="#374151" text-anchor="middle" font-weight="700">country/status</text><rect x="269" y="144" width="18" height="190" rx="4" fill="#16a34a"/><text x="278" y="137" font-size="10" fill="#374151" text-anchor="middle" font-weight="700">100%</text><rect x="294" y="241.64" width="18" height="92.36" rx="4" fill="#7c3aed"/><text x="303" y="234.64" font-size="10" fill="#374151" text-anchor="middle" font-weight="700">49%</text><rect x="319" y="257.93" width="18" height="76.07" rx="4" fill="#dc2626"/><text x="328" y="250.93" font-size="10" fill="#374151" text-anchor="middle" font-weight="700">40%</text><text x="303" y="368" font-size="13" fill="#374151" text-anchor="middle" font-weight="700">created-at range</text><rect x="449" y="144" width="18" height="190" rx="4" fill="#16a34a"/><text x="458" y="137" font-size="10" fill="#374151" text-anchor="middle" font-weight="700">100%</text><rect x="474" y="226.61" width="18" height="107.39" rx="4" fill="#7c3aed"/><text x="483" y="219.61" font-size="10" fill="#374151" text-anchor="middle" font-weight="700">57%</text><rect x="499" y="276.78" width="18" height="57.22" rx="4" fill="#dc2626"/><text x="508" y="269.78" font-size="10" fill="#374151" text-anchor="middle" font-weight="700">30%</text><text x="483" y="368" font-size="13" fill="#374151" text-anchor="middle" font-weight="700">top reputation</text><rect x="629" y="144" width="18" height="190" rx="4" fill="#16a34a"/><text x="638" y="137" font-size="10" fill="#374151" text-anchor="middle" font-weight="700">100%</text><rect x="654" y="213.88" width="18" height="120.12" rx="4" fill="#7c3aed"/><text x="663" y="206.88" font-size="10" fill="#374151" text-anchor="middle" font-weight="700">63%</text><rect x="679" y="272.1" width="18" height="61.9" rx="4" fill="#dc2626"/><text x="688" y="265.1" font-size="10" fill="#374151" text-anchor="middle" font-weight="700">33%</text><text x="663" y="368" font-size="13" fill="#374151" text-anchor="middle" font-weight="700">post country/status</text><rect x="809" y="144" width="18" height="190" rx="4" fill="#16a34a"/><text x="818" y="137" font-size="10" fill="#374151" text-anchor="middle" font-weight="700">100%</text><rect x="834" y="225.97" width="18" height="108.03" rx="4" fill="#7c3aed"/><text x="843" y="218.97" font-size="10" fill="#374151" text-anchor="middle" font-weight="700">57%</text><rect x="859" y="279.89" width="18" height="54.11" rx="4" fill="#dc2626"/><text x="868" y="272.89" font-size="10" fill="#374151" text-anchor="middle" font-weight="700">28%</text><text x="843" y="368" font-size="13" fill="#374151" text-anchor="middle" font-weight="700">post reputation</text>
</svg>