<svg xmlns="http://www.w3.org/2000/svg" width="760" height="420" viewBox="0 0 760 420" role="img" aria-label="Write Throughput">
  <style>
    text { font-family: Inter, Segoe UI, Arial, sans-serif; }
  </style>
  <rect width="100%" height="100%" fill="#ffffff"/>
  <text x="48" y="44" font-size="24" font-weight="800" fill="#111827">Write Throughput</text><text x="48" y="72" font-size="13" fill="#6b7280">Grouped bars show relative throughput for insert and update phases; tallest bar per phase is 100%</text>
  <rect x="48" y="101" width="14" height="14" rx="3" fill="#16a34a"/><text x="70" y="113" font-size="13" fill="#111827" text-anchor="start" font-weight="700">ZoneTree</text><rect x="198" y="101" width="14" height="14" rx="3" fill="#7c3aed"/><text x="220" y="113" font-size="13" fill="#111827" text-anchor="start" font-weight="700">RocksDB</text><rect x="348" y="101" width="14" height="14" rx="3" fill="#dc2626"/><text x="370" y="113" font-size="13" fill="#111827" text-anchor="start" font-weight="700">SQLite</text><rect x="498" y="101" width="14" height="14" rx="3" fill="#2563eb"/><text x="520" y="113" font-size="13" fill="#111827" text-anchor="start" font-weight="700">MySQL</text><line x1="48" y1="334" x2="712" y2="334" stroke="#d1d5db" stroke-width="1"/><line x1="48" y1="239" x2="712" y2="239" stroke="#f3f4f6" stroke-width="1"/><text x="712" y="233" font-size="11" fill="#9ca3af" text-anchor="end" font-weight="400">50%</text><text x="712" y="138" font-size="11" fill="#9ca3af" text-anchor="end" font-weight="400">100%</text><rect x="76.5" y="144" width="18" height="190" rx="4" fill="#16a34a"/><text x="85.5" y="137" font-size="10" fill="#374151" text-anchor="middle" font-weight="700">100%</text><rect x="101.5" y="215.5" width="18" height="118.5" rx="4" fill="#7c3aed"/><text x="110.5" y="208.5" font-size="10" fill="#374151" text-anchor="middle" font-weight="700">62%</text><rect x="126.5" y="324.23" width="18" height="9.77" rx="4" fill="#dc2626"/><text x="135.5" y="317.23" font-size="10" fill="#374151" text-anchor="middle" font-weight="700">5%</text><rect x="151.5" y="326.91" width="18" height="7.09" rx="4" fill="#2563eb"/><text x="160.5" y="319.91" font-size="10" fill="#374151" text-anchor="middle" font-weight="700">4%</text><text x="123" y="368" font-size="13" fill="#374151" text-anchor="middle" font-weight="700">insert profiles</text><rect x="256.5" y="144" width="18" height="190" rx="4" fill="#16a34a"/><text x="265.5" y="137" font-size="10" fill="#374151" text-anchor="middle" font-weight="700">100%</text><rect x="281.5" y="254.83" width="18" height="79.17" rx="4" fill="#7c3aed"/><text x="290.5" y="247.83" font-size="10" fill="#374151" text-anchor="middle" font-weight="700">42%</text><rect x="306.5" y="324.56" width="18" height="9.44" rx="4" fill="#dc2626"/><text x="315.5" y="317.56" font-size="10" fill="#374151" text-anchor="middle" font-weight="700">5%</text><rect x="331.5" y="329.63" width="18" height="4.37" rx="4" fill="#2563eb"/><text x="340.5" y="322.63" font-size="10" fill="#374151" text-anchor="middle" font-weight="700">2%</text><text x="303" y="368" font-size="13" fill="#374151" text-anchor="middle" font-weight="700">update profiles</text>
</svg>