<svg xmlns="http://www.w3.org/2000/svg" width="1360" height="298" viewBox="0 0 1360 298" role="img" aria-label="Profile Store Execution Time">
  <style>
    text { font-family: Inter, Segoe UI, Arial, sans-serif; }
  </style>
  <rect width="100%" height="100%" fill="#ffffff"/>
  <text x="48" y="44" font-size="24" font-weight="800" fill="#111827">Profile Store Execution Time</text><text x="48" y="72" font-size="13" fill="#6b7280">50_000_000 live profiles; completed phase time normalized to the fastest engine</text>
  <text x="48" y="112" font-size="12" fill="#6b7280" text-anchor="start" font-weight="700">Engine</text><text x="338" y="112" font-size="12" fill="#6b7280" text-anchor="start" font-weight="700">Relative throughput</text><text x="930" y="112" font-size="12" fill="#6b7280" text-anchor="start" font-weight="700">Delta</text><text x="1060" y="112" font-size="12" fill="#6b7280" text-anchor="start" font-weight="700">Phase time</text><text x="1210" y="112" font-size="12" fill="#6b7280" text-anchor="start" font-weight="700">Run time</text><line x1="48" y1="170" x2="1300" y2="170" stroke="#f3f4f6" stroke-width="1"/><text x="48" y="146" font-size="17" fill="#111827" text-anchor="start" font-weight="800">ZoneTree</text><rect x="338" y="131" width="540" height="22" rx="11" fill="#eef2f7"/><rect x="338" y="131" width="540" height="22" rx="11" fill="#16a34a"/><text x="930" y="147" font-size="13" fill="#374151" text-anchor="start" font-weight="800">1.00x</text><text x="1060" y="147" font-size="14" fill="#111827" text-anchor="start" font-weight="700">7_454_024 ms</text><text x="1210" y="147" font-size="14" fill="#4b5563" text-anchor="start" font-weight="400">7_515_884 ms</text><line x1="48" y1="232" x2="1300" y2="232" stroke="#f3f4f6" stroke-width="1"/><text x="48" y="208" font-size="17" fill="#111827" text-anchor="start" font-weight="800">RocksDB</text><rect x="338" y="193" width="540" height="22" rx="11" fill="#eef2f7"/><rect x="338" y="193" width="321.12" height="22" rx="11" fill="#7c3aed"/><text x="930" y="209" font-size="13" fill="#374151" text-anchor="start" font-weight="800">1.7x</text><text x="1060" y="209" font-size="14" fill="#111827" text-anchor="start" font-weight="700">12_534_639 ms</text><text x="1210" y="209" font-size="14" fill="#4b5563" text-anchor="start" font-weight="400">12_663_105 ms</text><text x="338" y="294" font-size="12" fill="#6b7280" text-anchor="start" font-weight="400">Relative throughput is normalized to the fastest completed engine. Time columns remain absolute.</text>
</svg>