<svg xmlns="http://www.w3.org/2000/svg" width="786" height="420" viewBox="0 0 786 420" role="img" aria-label="Lookup Throughput">
  <style>
    text { font-family: Inter, Segoe UI, Arial, sans-serif; }
  </style>
  <rect width="100%" height="100%" fill="#ffffff"/>
  <text x="48" y="44" font-size="24" font-weight="800" fill="#111827">Lookup Throughput</text><text x="48" y="72" font-size="13" fill="#6b7280">Grouped bars show relative throughput for point and email lookups; tallest bar per phase is 100%</text>
  <rect x="48" y="101" width="14" height="14" rx="3" fill="#16a34a"/><text x="70" y="113" font-size="13" fill="#111827" text-anchor="start" font-weight="700">ZoneTree</text><rect x="198" y="101" width="14" height="14" rx="3" fill="#7c3aed"/><text x="220" y="113" font-size="13" fill="#111827" text-anchor="start" font-weight="700">RocksDB</text><rect x="348" y="101" width="14" height="14" rx="3" fill="#dc2626"/><text x="370" y="113" font-size="13" fill="#111827" text-anchor="start" font-weight="700">SQLite</text><rect x="498" y="101" width="14" height="14" rx="3" fill="#2563eb"/><text x="520" y="113" font-size="13" fill="#111827" text-anchor="start" font-weight="700">MySQL</text><line x1="48" y1="334" x2="738" y2="334" stroke="#d1d5db" stroke-width="1"/><line x1="48" y1="239" x2="738" y2="239" stroke="#f3f4f6" stroke-width="1"/><text x="738" y="233" font-size="11" fill="#9ca3af" text-anchor="end" font-weight="400">50%</text><text x="738" y="138" font-size="11" fill="#9ca3af" text-anchor="end" font-weight="400">100%</text><rect x="76.5" y="144" width="18" height="190" rx="4" fill="#16a34a"/><text x="85.5" y="137" font-size="10" fill="#374151" text-anchor="middle" font-weight="700">100%</text><rect x="101.5" y="292.71" width="18" height="41.29" rx="4" fill="#7c3aed"/><text x="110.5" y="285.71" font-size="10" fill="#374151" text-anchor="middle" font-weight="700">22%</text><rect x="126.5" y="259.66" width="18" height="74.34" rx="4" fill="#dc2626"/><text x="135.5" y="252.66" font-size="10" fill="#374151" text-anchor="middle" font-weight="700">39%</text><rect x="151.5" y="331" width="18" height="3" rx="4" fill="#2563eb"/><text x="160.5" y="324" font-size="10" fill="#374151" text-anchor="middle" font-weight="700">1%</text><text x="123" y="368" font-size="13" fill="#374151" text-anchor="middle" font-weight="700">read user id</text><rect x="256.5" y="144" width="18" height="190" rx="4" fill="#16a34a"/><text x="265.5" y="137" font-size="10" fill="#374151" text-anchor="middle" font-weight="700">100%</text><rect x="281.5" y="285.55" width="18" height="48.45" rx="4" fill="#7c3aed"/><text x="290.5" y="278.55" font-size="10" fill="#374151" text-anchor="middle" font-weight="700">25%</text><rect x="306.5" y="203.18" width="18" height="130.82" rx="4" fill="#dc2626"/><text x="315.5" y="196.18" font-size="10" fill="#374151" text-anchor="middle" font-weight="700">69%</text><rect x="331.5" y="329.35" width="18" height="4.65" rx="4" fill="#2563eb"/><text x="340.5" y="322.35" font-size="10" fill="#374151" text-anchor="middle" font-weight="700">2%</text><text x="303" y="368" font-size="13" fill="#374151" text-anchor="middle" font-weight="700">email lookup</text><rect x="436.5" y="144" width="18" height="190" rx="4" fill="#16a34a"/><text x="445.5" y="137" font-size="10" fill="#374151" text-anchor="middle" font-weight="700">100%</text><rect x="461.5" y="289.48" width="18" height="44.52" rx="4" fill="#7c3aed"/><text x="470.5" y="282.48" font-size="10" fill="#374151" text-anchor="middle" font-weight="700">23%</text><rect x="486.5" y="252.2" width="18" height="81.8" rx="4" fill="#dc2626"/><text x="495.5" y="245.2" font-size="10" fill="#374151" text-anchor="middle" font-weight="700">43%</text><rect x="511.5" y="331" width="18" height="3" rx="4" fill="#2563eb"/><text x="520.5" y="324" font-size="10" fill="#374151" text-anchor="middle" font-weight="700">1%</text><text x="483" y="368" font-size="13" fill="#374151" text-anchor="middle" font-weight="700">post read id</text><rect x="616.5" y="144" width="18" height="190" rx="4" fill="#16a34a"/><text x="625.5" y="137" font-size="10" fill="#374151" text-anchor="middle" font-weight="700">100%</text><rect x="641.5" y="285.89" width="18" height="48.11" rx="4" fill="#7c3aed"/><text x="650.5" y="278.89" font-size="10" fill="#374151" text-anchor="middle" font-weight="700">25%</text><rect x="666.5" y="201.9" width="18" height="132.1" rx="4" fill="#dc2626"/><text x="675.5" y="194.9" font-size="10" fill="#374151" text-anchor="middle" font-weight="700">70%</text><rect x="691.5" y="329.47" width="18" height="4.53" rx="4" fill="#2563eb"/><text x="700.5" y="322.47" font-size="10" fill="#374151" text-anchor="middle" font-weight="700">2%</text><text x="663" y="368" font-size="13" fill="#374151" text-anchor="middle" font-weight="700">post email</text>
</svg>