<svg xmlns="http://www.w3.org/2000/svg" width="786" height="420" viewBox="0 0 786 420" role="img" aria-label="Write Throughput">
  <style>
    text { font-family: Inter, Segoe UI, Arial, sans-serif; }
  </style>
  <rect width="100%" height="100%" fill="#ffffff"/>
  <text x="48" y="44" font-size="24" font-weight="800" fill="#111827">Write Throughput</text><text x="48" y="72" font-size="13" fill="#6b7280">Raw write throughput and throughput after the following stabilization phase; tallest bar per group is 100%</text>
  <rect x="48" y="101" width="14" height="14" rx="3" fill="#16a34a"/><text x="70" y="113" font-size="13" fill="#111827" text-anchor="start" font-weight="700">ZoneTree</text><rect x="198" y="101" width="14" height="14" rx="3" fill="#7c3aed"/><text x="220" y="113" font-size="13" fill="#111827" text-anchor="start" font-weight="700">RocksDB</text><rect x="348" y="101" width="14" height="14" rx="3" fill="#dc2626"/><text x="370" y="113" font-size="13" fill="#111827" text-anchor="start" font-weight="700">SQLite</text><rect x="498" y="101" width="14" height="14" rx="3" fill="#2563eb"/><text x="520" y="113" font-size="13" fill="#111827" text-anchor="start" font-weight="700">MySQL</text><line x1="48" y1="334" x2="738" y2="334" stroke="#d1d5db" stroke-width="1"/><line x1="48" y1="239" x2="738" y2="239" stroke="#f3f4f6" stroke-width="1"/><text x="738" y="233" font-size="11" fill="#9ca3af" text-anchor="end" font-weight="400">50%</text><text x="738" y="138" font-size="11" fill="#9ca3af" text-anchor="end" font-weight="400">100%</text><rect x="76.5" y="144" width="18" height="190" rx="4" fill="#16a34a"/><text x="85.5" y="137" font-size="10" fill="#374151" text-anchor="middle" font-weight="700">100%</text><rect x="101.5" y="230.91" width="18" height="103.09" rx="4" fill="#7c3aed"/><text x="110.5" y="223.91" font-size="10" fill="#374151" text-anchor="middle" font-weight="700">54%</text><rect x="126.5" y="325.79" width="18" height="8.21" rx="4" fill="#dc2626"/><text x="135.5" y="318.79" font-size="10" fill="#374151" text-anchor="middle" font-weight="700">4%</text><rect x="151.5" y="326.43" width="18" height="7.57" rx="4" fill="#2563eb"/><text x="160.5" y="319.43" font-size="10" fill="#374151" text-anchor="middle" font-weight="700">4%</text><text x="123" y="368" font-size="13" fill="#374151" text-anchor="middle" font-weight="700">insert</text><rect x="256.5" y="144" width="18" height="190" rx="4" fill="#16a34a"/><text x="265.5" y="137" font-size="10" fill="#374151" text-anchor="middle" font-weight="700">100%</text><rect x="281.5" y="205.69" width="18" height="128.31" rx="4" fill="#7c3aed"/><text x="290.5" y="198.69" font-size="10" fill="#374151" text-anchor="middle" font-weight="700">68%</text><rect x="306.5" y="322.63" width="18" height="11.37" rx="4" fill="#dc2626"/><text x="315.5" y="315.63" font-size="10" fill="#374151" text-anchor="middle" font-weight="700">6%</text><rect x="331.5" y="323.53" width="18" height="10.47" rx="4" fill="#2563eb"/><text x="340.5" y="316.53" font-size="10" fill="#374151" text-anchor="middle" font-weight="700">6%</text><text x="303" y="368" font-size="13" fill="#374151" text-anchor="middle" font-weight="700">insert + stabilize</text><rect x="436.5" y="144" width="18" height="190" rx="4" fill="#16a34a"/><text x="445.5" y="137" font-size="10" fill="#374151" text-anchor="middle" font-weight="700">100%</text><rect x="461.5" y="236.74" width="18" height="97.26" rx="4" fill="#7c3aed"/><text x="470.5" y="229.74" font-size="10" fill="#374151" text-anchor="middle" font-weight="700">51%</text><rect x="486.5" y="322.25" width="18" height="11.75" rx="4" fill="#dc2626"/><text x="495.5" y="315.25" font-size="10" fill="#374151" text-anchor="middle" font-weight="700">6%</text><rect x="511.5" y="326.19" width="18" height="7.81" rx="4" fill="#2563eb"/><text x="520.5" y="319.19" font-size="10" fill="#374151" text-anchor="middle" font-weight="700">4%</text><text x="483" y="368" font-size="13" fill="#374151" text-anchor="middle" font-weight="700">update</text><rect x="616.5" y="144" width="18" height="190" rx="4" fill="#16a34a"/><text x="625.5" y="137" font-size="10" fill="#374151" text-anchor="middle" font-weight="700">100%</text><rect x="641.5" y="231.68" width="18" height="102.32" rx="4" fill="#7c3aed"/><text x="650.5" y="224.68" font-size="10" fill="#374151" text-anchor="middle" font-weight="700">54%</text><rect x="666.5" y="320.59" width="18" height="13.41" rx="4" fill="#dc2626"/><text x="675.5" y="313.59" font-size="10" fill="#374151" text-anchor="middle" font-weight="700">7%</text><rect x="691.5" y="325.09" width="18" height="8.91" rx="4" fill="#2563eb"/><text x="700.5" y="318.09" font-size="10" fill="#374151" text-anchor="middle" font-weight="700">5%</text><text x="663" y="368" font-size="13" fill="#374151" text-anchor="middle" font-weight="700">update + stabilize</text>
</svg>