<svg xmlns="http://www.w3.org/2000/svg" width="786" height="420" viewBox="0 0 786 420" role="img" aria-label="Lookup Throughput">
  <style>
    text { font-family: Inter, Segoe UI, Arial, sans-serif; }
  </style>
  <rect width="100%" height="100%" fill="#ffffff"/>
  <text x="48" y="44" font-size="24" font-weight="800" fill="#111827">Lookup Throughput</text><text x="48" y="72" font-size="13" fill="#6b7280">Grouped bars show relative throughput for point and email lookups; tallest bar per phase is 100%</text>
  <rect x="48" y="101" width="14" height="14" rx="3" fill="#16a34a"/><text x="70" y="113" font-size="13" fill="#111827" text-anchor="start" font-weight="700">ZoneTree</text><rect x="198" y="101" width="14" height="14" rx="3" fill="#7c3aed"/><text x="220" y="113" font-size="13" fill="#111827" text-anchor="start" font-weight="700">RocksDB</text><rect x="348" y="101" width="14" height="14" rx="3" fill="#dc2626"/><text x="370" y="113" font-size="13" fill="#111827" text-anchor="start" font-weight="700">SQLite</text><rect x="498" y="101" width="14" height="14" rx="3" fill="#2563eb"/><text x="520" y="113" font-size="13" fill="#111827" text-anchor="start" font-weight="700">MySQL</text><line x1="48" y1="334" x2="738" y2="334" stroke="#d1d5db" stroke-width="1"/><line x1="48" y1="239" x2="738" y2="239" stroke="#f3f4f6" stroke-width="1"/><text x="738" y="233" font-size="11" fill="#9ca3af" text-anchor="end" font-weight="400">50%</text><text x="738" y="138" font-size="11" fill="#9ca3af" text-anchor="end" font-weight="400">100%</text><rect x="76.5" y="144" width="18" height="190" rx="4" fill="#16a34a"/><text x="85.5" y="137" font-size="10" fill="#374151" text-anchor="middle" font-weight="700">100%</text><rect x="101.5" y="282.38" width="18" height="51.62" rx="4" fill="#7c3aed"/><text x="110.5" y="275.38" font-size="10" fill="#374151" text-anchor="middle" font-weight="700">27%</text><rect x="126.5" y="259.12" width="18" height="74.88" rx="4" fill="#dc2626"/><text x="135.5" y="252.12" font-size="10" fill="#374151" text-anchor="middle" font-weight="700">39%</text><rect x="151.5" y="324.56" width="18" height="9.44" rx="4" fill="#2563eb"/><text x="160.5" y="317.56" font-size="10" fill="#374151" text-anchor="middle" font-weight="700">5%</text><text x="123" y="368" font-size="13" fill="#374151" text-anchor="middle" font-weight="700">read user id</text><rect x="256.5" y="144" width="18" height="190" rx="4" fill="#16a34a"/><text x="265.5" y="137" font-size="10" fill="#374151" text-anchor="middle" font-weight="700">100%</text><rect x="281.5" y="272.56" width="18" height="61.44" rx="4" fill="#7c3aed"/><text x="290.5" y="265.56" font-size="10" fill="#374151" text-anchor="middle" font-weight="700">32%</text><rect x="306.5" y="214.24" width="18" height="119.76" rx="4" fill="#dc2626"/><text x="315.5" y="207.24" font-size="10" fill="#374151" text-anchor="middle" font-weight="700">63%</text><rect x="331.5" y="315.18" width="18" height="18.82" rx="4" fill="#2563eb"/><text x="340.5" y="308.18" font-size="10" fill="#374151" text-anchor="middle" font-weight="700">10%</text><text x="303" y="368" font-size="13" fill="#374151" text-anchor="middle" font-weight="700">email lookup</text><rect x="436.5" y="144" width="18" height="190" rx="4" fill="#16a34a"/><text x="445.5" y="137" font-size="10" fill="#374151" text-anchor="middle" font-weight="700">100%</text><rect x="461.5" y="286.63" width="18" height="47.37" rx="4" fill="#7c3aed"/><text x="470.5" y="279.63" font-size="10" fill="#374151" text-anchor="middle" font-weight="700">25%</text><rect x="486.5" y="264.08" width="18" height="69.92" rx="4" fill="#dc2626"/><text x="495.5" y="257.08" font-size="10" fill="#374151" text-anchor="middle" font-weight="700">37%</text><rect x="511.5" y="325.24" width="18" height="8.76" rx="4" fill="#2563eb"/><text x="520.5" y="318.24" font-size="10" fill="#374151" text-anchor="middle" font-weight="700">5%</text><text x="483" y="368" font-size="13" fill="#374151" text-anchor="middle" font-weight="700">post read id</text><rect x="616.5" y="144" width="18" height="190" rx="4" fill="#16a34a"/><text x="625.5" y="137" font-size="10" fill="#374151" text-anchor="middle" font-weight="700">100%</text><rect x="641.5" y="274.83" width="18" height="59.17" rx="4" fill="#7c3aed"/><text x="650.5" y="267.83" font-size="10" fill="#374151" text-anchor="middle" font-weight="700">31%</text><rect x="666.5" y="217.48" width="18" height="116.52" rx="4" fill="#dc2626"/><text x="675.5" y="210.48" font-size="10" fill="#374151" text-anchor="middle" font-weight="700">61%</text><rect x="691.5" y="315.83" width="18" height="18.17" rx="4" fill="#2563eb"/><text x="700.5" y="308.83" font-size="10" fill="#374151" text-anchor="middle" font-weight="700">10%</text><text x="663" y="368" font-size="13" fill="#374151" text-anchor="middle" font-weight="700">post email</text>
</svg>