<svg xmlns="http://www.w3.org/2000/svg" width="966" height="420" viewBox="0 0 966 420" role="img" aria-label="Query Throughput">
  <style>
    text { font-family: Inter, Segoe UI, Arial, sans-serif; }
  </style>
  <rect width="100%" height="100%" fill="#ffffff"/>
  <text x="48" y="44" font-size="24" font-weight="800" fill="#111827">Query Throughput</text><text x="48" y="72" font-size="13" fill="#6b7280">Grouped bars show relative throughput for indexed queries that fetch profiles at P16; tallest bar per phase is 100%</text>
  <rect x="48" y="101" width="14" height="14" rx="3" fill="#16a34a"/><text x="70" y="113" font-size="13" fill="#111827" text-anchor="start" font-weight="700">ZoneTree</text><rect x="198" y="101" width="14" height="14" rx="3" fill="#7c3aed"/><text x="220" y="113" font-size="13" fill="#111827" text-anchor="start" font-weight="700">RocksDB</text><line x1="48" y1="334" x2="918" y2="334" stroke="#d1d5db" stroke-width="1"/><line x1="48" y1="239" x2="918" y2="239" stroke="#f3f4f6" stroke-width="1"/><text x="918" y="233" font-size="11" fill="#9ca3af" text-anchor="end" font-weight="400">50%</text><text x="918" y="138" font-size="11" fill="#9ca3af" text-anchor="end" font-weight="400">100%</text><rect x="101.5" y="152.79" width="18" height="181.21" rx="4" fill="#16a34a"/><text x="110.5" y="145.79" font-size="10" fill="#374151" text-anchor="middle" font-weight="700">95%</text><rect x="126.5" y="144" width="18" height="190" rx="4" fill="#7c3aed"/><text x="135.5" y="137" font-size="10" fill="#374151" text-anchor="middle" font-weight="700">100%</text><text x="123" y="368" font-size="13" fill="#374151" text-anchor="middle" font-weight="700">country/status</text><rect x="281.5" y="144" width="18" height="190" rx="4" fill="#16a34a"/><text x="290.5" y="137" font-size="10" fill="#374151" text-anchor="middle" font-weight="700">100%</text><rect x="306.5" y="265.77" width="18" height="68.23" rx="4" fill="#7c3aed"/><text x="315.5" y="258.77" font-size="10" fill="#374151" text-anchor="middle" font-weight="700">36%</text><text x="303" y="368" font-size="13" fill="#374151" text-anchor="middle" font-weight="700">created-at range</text><rect x="461.5" y="144" width="18" height="190" rx="4" fill="#16a34a"/><text x="470.5" y="137" font-size="10" fill="#374151" text-anchor="middle" font-weight="700">100%</text><rect x="486.5" y="262.88" width="18" height="71.12" rx="4" fill="#7c3aed"/><text x="495.5" y="255.88" font-size="10" fill="#374151" text-anchor="middle" font-weight="700">37%</text><text x="483" y="368" font-size="13" fill="#374151" text-anchor="middle" font-weight="700">top reputation</text><rect x="641.5" y="170.86" width="18" height="163.14" rx="4" fill="#16a34a"/><text x="650.5" y="163.86" font-size="10" fill="#374151" text-anchor="middle" font-weight="700">86%</text><rect x="666.5" y="144" width="18" height="190" rx="4" fill="#7c3aed"/><text x="675.5" y="137" font-size="10" fill="#374151" text-anchor="middle" font-weight="700">100%</text><text x="663" y="368" font-size="13" fill="#374151" text-anchor="middle" font-weight="700">post country/status</text><rect x="821.5" y="144" width="18" height="190" rx="4" fill="#16a34a"/><text x="830.5" y="137" font-size="10" fill="#374151" text-anchor="middle" font-weight="700">100%</text><rect x="846.5" y="245.15" width="18" height="88.85" rx="4" fill="#7c3aed"/><text x="855.5" y="238.15" font-size="10" fill="#374151" text-anchor="middle" font-weight="700">47%</text><text x="843" y="368" font-size="13" fill="#374151" text-anchor="middle" font-weight="700">post reputation</text>
</svg>